# xmcd
#
# Track frame offsets: 
#        150
#        11682
#        22067
#        34552
#        46472
#        57797
#        71612
#        86242
#        98295
#        110817
#        122210
#        132722
#        143092
#        156555
#        168600
#        180092
#        191725
#        203755
#        215527
#        225862
#        252315
#        268210
#        281120
#        294835
#        308495
#        319642
#        331237
#        344695
#
# Disc length: 4763 seconds
#
# Revision: 0
# Processed by: cddbd v1.5.1PL0 Copyright (c) Steve Scherf et al.
# Submitted via: ExactAudioCopy v0.95a4
#
DISCID=a212991c
DTITLE=Willie Nelson - Nashville Was The Roughest... - Disc 5
DYEAR=1900
DGENRE=Country
TTITLE0=Crazy Arms
TTITLE1=I Gotta Get Drunk
TTITLE2=Wabash Cannon Ball
TTITLE3=One Has My Name (The Other Has My Heart)
TTITLE4=Who Do I Know In Dallas
TTITLE5=Both Sides Now
TTITLE6=It Could Be Said That Way
TTITLE7=Once More With Feeling
TTITLE8=Following Me Around
TTITLE9=Minstrel Man
TTITLE10=Where Do You Stand
TTITLE11=When We Live Again
TTITLE12=If You Could See What's Going Through My Mind
TTITLE13=Happiness Lives Next Door
TTITLE14=I've Seen That Look On Me (A Thousand Times)
TTITLE15=I Don't Feel Anything
TTITLE16=Laying My Burdens Down
TTITLE17=How Long Have You Been There
TTITLE18=Senses
TTITLE19=Sunday Mornin' Comin' Down
TTITLE20=What Can You Do To Me Now
TTITLE21=The Losers Song
TTITLE22=Fire And Rain
TTITLE23=I Can Cry Again
TTITLE24=I'm A Memory
TTITLE25=That's Why I Love Her So
TTITLE26=If You Could See What's Going Through My Mind
TTITLE27=The Losers Song
EXTD=
EXTT0=
EXTT1=
EXTT2=
EXTT3=
EXTT4=
EXTT5=
EXTT6=
EXTT7=
EXTT8=
EXTT9=
EXTT10=
EXTT11=
EXTT12=
EXTT13=
EXTT14=
EXTT15=
EXTT16=
EXTT17=
EXTT18=
EXTT19=
EXTT20=
EXTT21=
EXTT22=
EXTT23=
EXTT24=
EXTT25=
EXTT26=
EXTT27=
PLAYORDER=
